# xmcd
#
# Track frame offsets:
#  150
#  20881
#  43387
#  58734
#  78535
#  108588
#  132997
#  153121
#  166178
#  195902
#  217198
#  234481
#  259082
#  298455
#
# Disc length: 4411 seconds
#
# Revision: 0
# Processed by: cddbd v1.5.1PL2 Copyright (c) Steve Scherf et al.
# Submitted via: Collectorz.com_Music_Collector 6.10
#
DISCID=d311390e
DTITLE=Bruce Springsteen - First Intimate Evening Of Music And Conversation With Bruce Springsteen - 19th Febr. 2003 - Somerville Theatre [CD2)
DYEAR=2003
DGENRE=Acoustic - Rock
TTITLE0=Born In The Usa
TTITLE1=Souls Of The Departed
TTITLE2=The Wall
TTITLE3=Bobby Jean
TTITLE4=My Hometown
TTITLE5=Brilliant Disguise
TTITLE6=Stolen Car
TTITLE7=Little Things That Count
TTITLE8=If I Should Fall Behind
TTITLE9=The Ghost Of Tom Joad
TTITLE10=Sinaloa Cowboys
TTITLE11=The Rising
TTITLE12=Waitin' On A Sunny Day
TTITLE13=The Promised Land
EXTD=
EXTT0=
EXTT1=
EXTT2=
EXTT3=
EXTT4=
EXTT5=
EXTT6=
EXTT7=
EXTT8=
EXTT9=
EXTT10=
EXTT11=
EXTT12=
EXTT13=
PLAYORDER=
